<?xml version="1.0" encoding="UTF-8" standalone="no"?>
<svg
   id="svg8"
   version="1.1"
   viewBox="0 0 59.606113 46.470875"
   height="46.470875mm"
   width="59.606113mm"
   xmlns="http://www.w3.org/2000/svg"
   xmlns:svg="http://www.w3.org/2000/svg"
   xmlns:rdf="http://www.w3.org/1999/02/22-rdf-syntax-ns#"
   xmlns:cc="http://creativecommons.org/ns#"
   xmlns:dc="http://purl.org/dc/elements/1.1/">
  <defs
     id="defs2" />
  <metadata
     id="metadata5">
    <rdf:RDF>
      <cc:Work
         rdf:about="">
        <dc:format>image/svg+xml</dc:format>
        <dc:type
           rdf:resource="http://purl.org/dc/dcmitype/StillImage" />
      </cc:Work>
    </rdf:RDF>
  </metadata>
  <g
     style="display:inline"
     id="layer2"
     transform="translate(-65.974716,-42.490503)">
    <path
       id="path94"
       d="m 69.905046,71.829231 c 0,0 5.970852,-2.122914 9.503433,-0.08297 3.532585,2.039943 3.084791,3.930621 9.254374,3.980376 6.16958,0.04975 10.050446,-2.487734 10.398728,-2.587244 0.348284,-0.09951 4.726699,-2.13945 8.259279,-1.741413 3.53258,0.398036 2.43798,0.94534 5.92081,1.343377 3.48282,0.398036 5.55584,-0.05803 10.58106,-4.287171"
       style="display:none;fill:none;stroke:#000000;stroke-width:0.007;stroke-linecap:butt;stroke-linejoin:miter;stroke-miterlimit:4;stroke-dasharray:none;stroke-opacity:1" />
    <path
       id="path45"
       d="M 65.974716,77.020255 81.796706,56.123286 89.956475,65.37766 112.34608,42.490503 125.58083,72.442823 111.35099,86.772175 104.68386,73.039879 88.364323,88.96138 77.517801,72.542333 Z"
       style="display:none;fill:none;stroke:#000000;stroke-width:0.007;stroke-linecap:butt;stroke-linejoin:miter;stroke-miterlimit:4;stroke-dasharray:none;stroke-opacity:1" />
    <path
       id="path66"
       d="m 82.903002,80.696254 c 0,0 1.033154,-0.790226 2.376531,-0.790226 1.343377,0 2.388225,0.398037 3.731601,1.29362 1.343377,0.895585 1.940433,1.741416 5.771544,1.492641"
       style="display:none;fill:none;stroke:#000000;stroke-width:0.007;stroke-linecap:butt;stroke-linejoin:miter;stroke-miterlimit:4;stroke-dasharray:none;stroke-opacity:1" />
    <path
       id="path92"
       d="m 108.71399,81.348912 c 0,0 1.19411,-1.343377 4.17939,-1.243867 2.98529,0.09951 5.64724,-1.277086 7.73694,-2.670217"
       style="display:none;fill:none;stroke:#000000;stroke-width:0.007;stroke-linecap:butt;stroke-linejoin:miter;stroke-miterlimit:4;stroke-dasharray:none;stroke-opacity:1" />
    <path
       id="path98"
       d="m 74.100975,66.273388 c 0,0 3.814865,-2.28886 7.04892,-1.044993 3.234053,1.243867 3.980374,4.726694 12.339162,4.328657 8.358783,-0.398036 12.836713,-6.418355 13.433763,-7.015411 0.59706,-0.597056 6.13223,-7.516058 10.61015,-8.312134"
       style="display:none;fill:none;stroke:#000000;stroke-width:0.007;stroke-linecap:butt;stroke-linejoin:miter;stroke-miterlimit:4;stroke-dasharray:none;stroke-opacity:1" />
  </g>
  <path
     id="path1076"
     d="m 16.928285,38.205751 c 0,0 0.300154,-0.195757 0.565668,-0.32458 0.132758,-0.06441 0.460928,-0.218491 0.744197,-0.317111 0.283268,-0.09862 0.521636,-0.141791 1.03021,-0.14224 1.071838,-0.0011 1.626831,0.159093 2.450299,0.549055 0.5031,0.238249 1.233805,0.690607 1.673809,0.990952 1.451139,0.990539 2.969811,1.266711 3.803243,1.275895 0.833432,0.0092 1.612252,-0.03594 1.612252,-0.03594 l -6.418355,6.26909 z"
     style="display:inline;fill:#eb7f00;fill-opacity:1;stroke:none;stroke-width:0.00349999;stroke-miterlimit:4;stroke-dasharray:none;stroke-dashoffset:2.45669;stroke-opacity:1" />
  <path
     id="path1086"
     d="m 23.471801,39.018379 c -1.756209,-1.183804 -2.778882,-1.593308 -4.091654,-1.592337 -0.791671,5.29e-4 -1.073124,0.07502 -1.800855,0.41733 -0.275561,0.12962 -0.651007,0.362379 -0.651007,0.362379 L 11.543085,30.05183 0,34.529752 3.9303298,29.338727 c 0,0 0.3505174,-0.12365 1.3878269,-0.40156 0.5186547,-0.138954 1.6191097,-0.409001 2.7361673,-0.514075 1.1170576,-0.105072 2.122093,-0.06856 2.885533,0.01675 1.804926,0.201694 2.979965,1.011028 4.624628,2.370217 1.337172,1.105069 1.843317,1.433925 2.345465,1.649944 1.329338,0.571865 3.235783,0.822902 5.675961,0.737336 3.318486,-0.116369 5.43633,-0.624534 8.711313,-2.154238 2.898622,-1.353907 5.867826,-2.203794 8.10328,-2.198447 1.391772,0.0033 2.719403,0.308211 4.063989,0.789874 1.535451,0.550032 2.266342,0.681858 4.355,0.688047 2.064747,0.0061 2.651778,-0.182428 4.176357,-0.906738 2.15523,-1.189477 4.852165,-3.452156 4.852165,-3.452156 l 1.758098,3.988636 -4.95051,4.992004 c 0,0 -0.734002,0.565616 -2.526977,1.449451 -1.92074,0.94682 -2.305873,1.108562 -4.67722,1.216973 -1.995156,0.09121 -2.365967,0.08236 -3.40497,0.444402 -0.759555,0.26467 -1.307161,0.803259 -1.307161,0.803259 l -4.030131,-8.309033 -9.901181,9.65241 c 0,0 -1.743906,0.106778 -2.631747,-0.03243 -1.245405,-0.104846 -1.800969,-0.560975 -2.704415,-1.150974 z"
     style="fill:#ff9700;fill-opacity:1;stroke:none;stroke-width:0.00247487;stroke-miterlimit:4;stroke-dasharray:none;stroke-dashoffset:2.45669;stroke-opacity:1" />
  <path
     id="path1088"
     d="M 20.839456,33.172736 C 18.760355,32.934293 17.685954,32.604871 16.01452,31.187334 13.340281,28.919318 12.242847,28.373919 9.4841006,28.372014 7.8199429,28.370956 6.909382,28.556021 5.1654604,28.981871 4.5480737,29.13263 3.9423869,29.35266 3.9303298,29.338727 5.397619,27.46743 8.1262589,23.782885 8.1262589,23.782885 c 0,0 1.0784682,-0.6217 2.2259211,-0.96442 1.147456,-0.342717 2.229421,-0.51754 2.92631,-0.477382 1.45945,0.0841 2.251573,0.298011 4.150958,1.691902 1.948527,1.429951 2.400411,1.861333 4.238802,2.464236 1.087316,0.356587 2.759059,0.601279 4.679815,0.601279 2.608046,0 4.922406,-0.494823 7.047302,-1.285361 1.480505,-0.550802 3.342912,-1.888718 3.719927,-2.183718 0.384636,-0.300963 2.454183,-2.048388 3.785407,-3.535378 2.911126,-3.251758 4.886103,-5.287076 6.815307,-6.592438 0.303173,-0.205134 0.875517,-0.559792 1.343988,-0.816758 0.468471,-0.256968 0.83307,-0.416245 1.188464,-0.558027 0.710792,-0.283565 1.309793,-0.387816 1.309793,-0.387816 l 6.289762,14.224675 c 0,0 -0.495019,0.413493 -1.178274,0.946062 -0.683257,0.532569 -1.55475,1.184209 -2.272623,1.666351 -1.067033,0.716648 -2.045351,1.223656 -2.886054,1.485355 -0.8407,0.2617 -1.543788,0.278091 -2.523378,0.278091 -1.700274,0 -2.573878,-0.043 -3.991817,-0.525455 -1.681723,-0.572217 -3.11,-0.973659 -4.642138,-0.969052 -1.331172,0.004 -4.182729,0.654571 -5.475163,1.133284 -1.171633,0.43397 -1.551485,0.587383 -2.402277,1.005181 -1.948037,0.956623 -4.145317,1.710926 -6.312238,2.048471 -1.125823,0.175373 -4.307978,0.25736 -5.324597,0.140769 z"
     style="fill:#ffb03b;fill-opacity:1;stroke:none;stroke-width:0.00247487;stroke-miterlimit:4;stroke-dasharray:none;stroke-dashoffset:2.45669;stroke-opacity:1" />
  <path
     id="path1090"
     d="m 23.00461,26.827916 c -0.985707,-0.14402 -2.162,-0.567327 -3.096162,-1.056595 -0.437319,-0.229047 -1.328914,-0.882925 -2.049206,-1.419122 -0.720291,-0.536194 -1.606251,-1.126077 -1.950936,-1.309063 -1.259952,-0.668877 -2.749177,-0.831289 -4.353589,-0.526939 -0.398754,0.07564 -1.136113,0.267457 -1.627352,0.442672 -0.5116433,0.182491 -1.1664236,0.49343 -1.4677231,0.646745 -0.1929342,0.09818 -0.333383,0.177271 -0.333383,0.177271 C 10.887802,20.279987 15.821991,13.632783 15.821991,13.632783 L 23.984529,22.89107 46.371364,0 51.557041,11.739861 c 0,0 -0.336307,0.06567 -0.825077,0.210519 -0.312338,0.09257 -0.879684,0.354078 -1.143026,0.469498 -0.263342,0.115421 -0.28992,0.1286 -0.581858,0.294539 -0.723236,0.411088 -1.773185,1.099389 -2.527742,1.717461 -1.509115,1.236144 -3.280537,3.093894 -5.231154,5.276823 -1.771557,1.982547 -2.975454,3.038568 -4.18034,3.974997 -2.211247,1.718561 -4.164168,2.510356 -6.91162,3.064915 -0.859811,0.17355 -1.779617,0.327736 -3.655566,0.349496 -1.278281,-5.29e-4 -2.281086,-0.02432 -3.496048,-0.270193 z"
     style="fill:#6edaf4;fill-opacity:1;stroke:none;stroke-width:0.00247487;stroke-miterlimit:4;stroke-dasharray:none;stroke-dashoffset:2.45669;stroke-opacity:1" />
  <path
     id="path1092"
     d="m 42.739275,38.858409 c 0,0 0.279998,-0.280016 0.666549,-0.493794 0.365929,-0.202375 0.582694,-0.315585 1.248021,-0.499886 0.471088,-0.130495 0.850294,-0.166817 2.212081,-0.230658 2.475812,-0.11607 3.54548,-0.330211 5.581486,-1.407808 0.541567,-0.286637 2.186773,-1.30175 2.204328,-1.284198 0.04161,0.04162 -9.275466,9.339607 -9.275466,9.339607 z"
     style="fill:#eb7f00;fill-opacity:1;stroke:none;stroke-width:0.00247487;stroke-miterlimit:4;stroke-dasharray:none;stroke-dashoffset:2.45669;stroke-opacity:1" />
  <g
     style="display:inline"
     id="layer3"
     transform="translate(-65.974716,-42.490503)" />
</svg>
